<?xml version="1.0" encoding="UTF-8" standalone="no"?>
<svg width="124px" height="109px" viewBox="0 0 124 109" version="1.1" xmlns="http://www.w3.org/2000/svg" xmlns:xlink="http://www.w3.org/1999/xlink">
    <!-- Generator: Sketch 3.8.3 (29802) - http://www.bohemiancoding.com/sketch -->
    <title>brainstorming</title>
    <desc>Created with Sketch.</desc>
    <defs></defs>
    <g id="Page-1" stroke="none" stroke-width="1" fill="none" fill-rule="evenodd">
        <g id="Home" transform="translate(-239.000000, -2746.000000)">
            <g id="Group-5" transform="translate(148.000000, 2745.000000)">
                <g id="brainstorming" transform="translate(91.000000, 1.000000)">
                    <g id="Layer_1">
                        <g id="Group">
                            <path d="M53.1428571,57.8231707 L70.8571429,57.8231707 C70.8571429,53.3922764 67.8767143,50.853374 64.2142857,50.853374 C62.992,50.853374 62,49.699126 62,48.4761992 C62,44.8118496 59.0195714,41.7478862 55.3571429,41.7478862 C54.715,41.7478862 54.0861429,41.8032724 53.4816429,41.9805081 C53.4683571,42.3527033 53.3952857,42.7005285 53.1982143,43.0261992 C52.8815714,43.5512602 52.3612143,43.912378 51.7611429,44.040874 C48.7120714,44.6855691 46.5,47.7384553 46.5,50.8578049 C46.5,54.5221545 49.4804286,57.8231707 53.1428571,57.8231707 L53.1428571,57.8231707 Z" id="Shape" fill="#66CEDB"></path>
                            <path d="M66.2425714,46.6085772 C71.3819286,47.563435 75.2857143,51.1768293 75.2857143,57.8231707 L99.6428571,57.8231707 C100.865143,57.8231707 101.857143,58.8156911 101.857143,60.0386179 C101.857143,63.7029675 104.837571,66.6849593 108.5,66.6849593 L110.714286,66.6849593 L110.714286,59.3917073 C110.714286,58.1687805 111.706286,57.1762602 112.928571,57.1762602 C116.591,57.1762602 119.571429,54.1942683 119.571429,50.5299187 C119.571429,47.4105691 117.359357,44.6767073 114.310286,44.0320122 C113.710214,43.9035163 113.189857,43.5335366 112.873214,43.0084756 C112.556571,42.4834146 112.472429,41.8475813 112.640714,41.2582724 C112.835571,40.562622 112.928571,39.9888211 112.928571,39.4526829 C112.928571,35.7883333 109.948143,32.8063415 106.285714,32.8063415 C105.785286,32.8063415 105.249429,32.8860976 104.605071,33.056687 C103.923071,33.2339228 103.201214,33.0832724 102.654286,32.6423984 C102.107357,32.2037398 101.799571,31.5280285 101.828357,30.8279472 C101.830571,30.752622 101.852714,30.5288618 101.863786,30.455752 C101.857143,26.9243293 98.8767143,23.9445528 95.2142857,23.9445528 C93.8812857,23.9445528 92.597,24.3389024 91.4965,25.0832927 C90.9274286,25.4687805 90.2122143,25.5729065 89.559,25.3513618 C88.9057857,25.1364634 88.3920714,24.629126 88.164,23.98 C87.2295714,21.3081707 84.723,19.5136585 81.9263571,19.5136585 C79.1297143,19.5136585 76.6231429,21.3081707 75.6887143,23.98 C75.4606429,24.629126 74.9469286,25.1364634 74.2937143,25.3513618 C73.6449286,25.5729065 72.9252857,25.4687805 72.3562143,25.0832927 C71.2557143,24.3389024 69.9714286,23.9445528 68.6384286,23.9445528 C64.976,23.9445528 61.9955714,26.9265447 61.9955714,30.5908943 C61.9955714,31.8138211 61.0035714,32.8063415 59.7812857,32.8063415 C56.8362857,32.8063415 54.3607143,34.7470732 53.4927143,37.4078252 C54.1038571,37.3036992 54.7238571,37.3989634 55.3527143,37.3989634 C60.7688571,37.3989634 65.286,41.4665244 66.2425714,46.6085772 L66.2425714,46.6085772 Z" id="Shape" fill="#4990E2"></path>
                            <path d="M11.0714286,74.8998374 C12.2937143,74.8998374 13.2857143,75.8923577 13.2857143,77.1152846 L13.2857143,84.4085366 L15.5,84.4085366 C19.1624286,84.4085366 22.1428571,81.4265447 22.1428571,77.7621951 C22.1428571,76.5392683 23.1348571,75.546748 24.3571429,75.546748 L70.8571429,75.546748 C74.5195714,75.546748 77.5,72.2413008 77.5,68.5769512 C77.5,65.4576016 75.2879286,62.8876829 72.2388571,62.2429878 C72.1148571,62.214187 72.0152143,62.254065 71.9000714,62.254065 L53.1428571,62.254065 C47.0380714,62.254065 42.0714286,56.9613618 42.0714286,50.853374 C42.0714286,46.7237805 44.4119286,42.8644715 47.9149286,40.9680488 C46.7812143,38.8013415 44.5425714,37.3192073 42.0714286,37.3192073 C39.2747857,37.3192073 36.7682143,39.0738415 35.8337857,41.7434553 C35.6057143,42.3925813 35.092,42.8799797 34.4387857,43.094878 C33.79,43.3119919 33.0725714,43.2012195 32.5012857,42.8157317 C31.403,42.0713415 30.1187143,41.672561 28.7857143,41.672561 C25.1232857,41.672561 22.1428571,44.6523374 22.1428571,48.316687 C22.1517143,48.296748 22.1672143,48.4185976 22.1738571,48.5515244 C22.2026429,49.2538211 21.8948571,49.9273171 21.3479286,50.3659756 C20.7987857,50.8068496 20.0769286,50.9619309 19.3971429,50.7802642 C18.7527857,50.6096748 18.2169286,50.5299187 17.7165,50.5299187 C14.0540714,50.5299187 11.0736429,53.5119106 11.0736429,57.1762602 C11.0736429,57.7146138 11.1644286,58.2884146 11.3637143,58.9818496 C11.532,59.573374 11.4478571,60.2069919 11.1312143,60.7320528 C10.8145714,61.2571138 10.2942143,61.6293089 9.69414286,61.7555894 C6.64064286,62.4002846 4.42857143,65.1319309 4.42857143,68.2534959 C4.42857143,71.9178455 7.409,74.8998374 11.0714286,74.8998374 L11.0714286,74.8998374 Z" id="Shape" fill="#F6A623"></path>
                            <g fill="#000000">
                                <path d="M117.312857,40.3632317 C117.343857,40.0552846 117.357143,39.7539837 117.357143,39.4526829 C117.357143,33.2715854 112.277571,28.2801829 106.064286,28.3776626 C105.036857,23.3264431 100.561786,19.5136585 95.2142857,19.5136585 C93.8458571,19.5136585 92.5062143,19.7640041 91.2507143,20.2469715 C89.2534286,17.083313 85.7548571,15.0827642 81.9285714,15.0827642 C78.1022857,15.0827642 74.6037143,17.083313 72.6064286,20.2469715 C72.0395714,20.0298577 71.4527857,19.8747764 70.8571429,19.7529268 L70.8571429,10.6518699 C70.8571429,4.54388211 65.8905,0.221544715 59.7857143,0.221544715 L17.7142857,0.221544715 C11.6095,0.221544715 6.64285714,4.54388211 6.64285714,10.6518699 L6.64285714,36.3200407 L3.77978571,33.453252 L0.648785714,36.5858943 L7.29164286,43.2322358 C7.72342857,43.6664634 8.29028571,43.8835772 8.85714286,43.8835772 C9.424,43.8835772 9.99085714,43.6664634 10.4226429,43.2344512 L17.0655,36.5881098 L13.9345,33.453252 L11.0714286,36.3178252 L11.0714286,10.6518699 C11.0714286,6.98530488 14.0518571,4.65243902 17.7142857,4.65243902 L59.7857143,4.65243902 C63.4481429,4.65243902 66.4285714,6.98530488 66.4285714,10.6518699 L66.4285714,19.7551423 C62.0376429,20.6523984 58.5789286,24.1417276 57.7574286,28.5615447 C53.8935,29.281565 50.7292857,32.0154268 49.3962857,35.6310366 C47.4167143,33.8608943 44.8348571,32.8063415 42.0714286,32.8063415 C38.2451429,32.8063415 34.7465714,34.8068902 32.7492857,37.9705488 C31.4937857,37.4875813 30.1541429,37.2372358 28.7857143,37.2372358 C23.4382143,37.2372358 18.9631429,41.0500203 17.9357143,46.1012398 C11.7777857,45.988252 6.64285714,50.9929472 6.64285714,57.1762602 C6.64285714,57.477561 6.65614286,57.7788618 6.68714286,58.0868089 C2.71028571,59.8104268 0,63.7938008 0,68.2534959 C0,73.6038008 3.81078571,78.0790041 8.85714286,79.1069715 L8.85714286,85.9770732 C8.85714286,87.2 9.84914286,88.8394309 11.0714286,88.8394309 L15.5,88.8394309 C20.8475,88.8394309 25.3203571,84.4085366 26.3477857,79.9776423 L35.4285714,79.9776423 L35.4285714,97.0543089 C35.4285714,103.160081 40.3952143,108.778455 46.5,108.778455 L84.1428571,108.778455 C90.2476429,108.778455 95.2142857,103.160081 95.2142857,97.0543089 L95.2142857,73.6015854 L98.0773571,76.4661585 L101.208357,73.3313008 L94.5655,66.6849593 C93.6997143,65.8187195 92.3002857,65.8187195 91.4345,66.6849593 L84.7916429,73.3313008 L87.9226429,76.4639431 L90.7857143,73.6015854 L90.7857143,97.0543089 C90.7857143,100.718659 87.8052857,104.347561 84.1428571,104.347561 L46.5,104.347561 C42.8375714,104.347561 39.8571429,100.718659 39.8571429,97.0543089 L39.8571429,79.9776423 L70.8571429,79.9776423 C76.9619286,79.9776423 81.9285714,75.0083943 81.9285714,68.9004065 C81.9285714,66.4323984 81.0760714,62.254065 79.6611429,62.254065 L97.6522143,62.254065 C98.6796429,66.6849593 103.154714,71.1158537 108.5,71.1158537 L112.928571,71.1158537 C114.150857,71.1158537 115.142857,69.4764228 115.142857,68.2534959 L115.142857,61.3833943 C120.189214,60.3554268 124,55.8780081 124,50.5299187 C124,46.0702236 121.289714,42.0868496 117.312857,40.3632317 L117.312857,40.3632317 Z M53.1428571,57.8231707 C49.4804286,57.8231707 46.5,54.5177236 46.5,50.853374 C46.5,47.7340244 48.7120714,44.838435 51.7611429,44.1937398 C52.3612143,44.0652439 52.8815714,43.6132927 53.1982143,43.0882317 C53.3952857,42.762561 53.4683571,42.3549187 53.4816429,41.9805081 C54.0861429,41.8032724 54.715,41.6858537 55.3571429,41.6858537 C59.0195714,41.6858537 62,44.6567683 62,48.3211179 C62,49.5440447 62.992,50.8555894 64.2142857,50.8555894 C67.8767143,50.8555894 70.8571429,53.390061 70.8571429,57.8209553 L53.1428571,57.8231707 L53.1428571,57.8231707 L53.1428571,57.8231707 L53.1428571,57.8231707 Z M72.2388571,62.0790447 C75.2879286,62.7237398 77.5,65.6193293 77.5,68.7386789 C77.5,72.4030285 74.5195714,75.546748 70.8571429,75.546748 L24.3571429,75.546748 C23.1348571,75.546748 22.1428571,76.5392683 22.1428571,77.7621951 C22.1428571,81.4265447 19.1624286,84.4085366 15.5,84.4085366 L13.2857143,84.4085366 L13.2857143,77.1152846 C13.2857143,75.8923577 12.2937143,74.8998374 11.0714286,74.8998374 C7.409,74.8998374 4.42857143,71.9178455 4.42857143,68.2534959 C4.42857143,65.1341463 6.64064286,62.4002846 9.68971429,61.7555894 C10.2897857,61.6270935 10.8101429,61.2571138 11.1267857,60.7320528 C11.4434286,60.2069919 11.5275714,59.573374 11.3592857,58.9818496 C11.1622143,58.2861992 11.0714286,57.7123984 11.0714286,57.1762602 C11.0714286,53.5119106 14.0518571,50.5299187 17.7142857,50.5299187 C18.2147143,50.5299187 18.7505714,50.6096748 19.3949286,50.7802642 C20.0747143,50.9619309 20.7965714,50.8068496 21.3457143,50.3659756 C21.8926429,49.9273171 22.2004286,49.2516057 22.1716429,48.5515244 C22.1672143,48.420813 22.1517143,48.2945325 22.1406429,48.316687 C22.1406429,44.6523374 25.1210714,41.6703455 28.7835,41.6703455 C30.1165,41.6703455 31.4007857,42.0646951 32.5012857,42.8090854 C33.0725714,43.1945732 33.7877857,43.2942683 34.4387857,43.0771545 C35.092,42.8622561 35.6057143,42.3549187 35.8337857,41.7057927 C36.7682143,39.0339634 39.2747857,37.2394512 42.0714286,37.2394512 C44.5403571,37.2394512 46.7812143,38.6418293 47.9149286,40.8085366 C44.4119286,42.7027439 42.0714286,46.7237805 42.0714286,50.853374 C42.0714286,56.9613618 47.0380714,62.254065 53.1428571,62.254065 L71.9000714,62.254065 C72.0152143,62.254065 72.1148571,62.0524593 72.2388571,62.0790447 L72.2388571,62.0790447 Z M112.928571,57.1762602 C111.706286,57.1762602 110.714286,58.1687805 110.714286,59.3917073 L110.714286,66.6849593 L108.5,66.6849593 C104.837571,66.6849593 101.857143,63.7029675 101.857143,60.0386179 C101.857143,58.8156911 100.865143,57.8231707 99.6428571,57.8231707 L75.2857143,57.8231707 C75.2857143,51.1768293 71.3819286,47.563435 66.2425714,46.6085772 C65.286,41.4665244 60.7688571,37.3989634 55.3571429,37.3989634 C54.7282857,37.3989634 54.1082857,37.3834553 53.4971429,37.4875813 C54.3651429,34.8268293 56.8385,32.8462195 59.7857143,32.8462195 C61.008,32.8462195 62,31.8337602 62,30.6108333 C62,26.9464837 64.9804286,23.9534146 68.6428571,23.9534146 C69.9758571,23.9534146 71.2601429,24.3411179 72.3606429,25.0855081 C72.9297143,25.4709959 73.6471429,25.5729065 74.2981429,25.3513618 C74.9513571,25.1364634 75.4650714,24.6269106 75.6931429,23.9777846 C76.6275714,21.3081707 79.1341429,19.5114431 81.9307857,19.5114431 C84.7274286,19.5114431 87.234,21.3059553 88.1684286,23.9755691 C88.3942857,24.6246951 88.9102143,25.1320325 89.5634286,25.3469309 C90.2144286,25.5684756 90.9318571,25.4643496 91.5009286,25.0788618 C92.6014286,24.3344715 93.8857143,23.940122 95.2187143,23.940122 C98.8811429,23.940122 101.861571,26.9221138 101.866,30.4491057 C101.854929,30.5244309 101.832786,30.7459756 101.830571,30.8213008 C101.801786,31.5235976 102.109571,32.1970935 102.6565,32.635752 C103.203429,33.076626 103.925286,33.2272764 104.607286,33.0500407 C105.253857,32.8794512 105.7875,32.7996951 106.287929,32.7996951 C109.950357,32.7996951 112.930786,35.781687 112.930786,39.4460366 C112.930786,39.9843902 112.837786,40.5581911 112.640714,41.251626 C112.472429,41.8431504 112.556571,42.4767683 112.873214,43.0018293 C113.189857,43.5268902 113.710214,43.8990854 114.310286,44.0253659 C117.359357,44.6767073 119.571429,47.4083537 119.571429,50.5299187 C119.571429,54.1942683 116.591,57.1762602 112.928571,57.1762602 L112.928571,57.1762602 Z" id="Shape"></path>
                                <rect id="Rectangle-path" x="93" y="1.78786585" width="4.42857143" height="4.43089431"></rect>
                                <rect id="Rectangle-path" x="101.857143" y="1.78786585" width="4.42857143" height="4.43089431"></rect>
                                <rect id="Rectangle-path" x="110.714286" y="1.78786585" width="4.42857143" height="4.43089431"></rect>
                                <rect id="Rectangle-path" x="8.85714286" y="103.70065" width="4.42857143" height="4.43089431"></rect>
                                <rect id="Rectangle-path" x="17.7142857" y="103.70065" width="4.42857143" height="4.43089431"></rect>
                                <rect id="Rectangle-path" x="26.5714286" y="103.70065" width="4.42857143" height="4.43089431"></rect>
                            </g>
                        </g>
                    </g>
                </g>
            </g>
        </g>
    </g>
</svg>