<svg width="124" height="109" viewBox="0 0 124 109" xmlns="http://www.w3.org/2000/svg"><title>brainstorming</title><g fill="none" fill-rule="evenodd"><path d="M53.143 57.823h17.714c0-4.43-2.98-6.97-6.643-6.97-1.222 0-2.214-1.154-2.214-2.377 0-3.664-2.98-6.728-6.643-6.728-.642 0-1.27.055-1.875.233-.014.372-.087.72-.284 1.045a2.208 2.208 0 0 1-1.437 1.015c-3.049.645-5.261 3.697-5.261 6.817 0 3.664 2.98 6.965 6.643 6.965z" fill="#66CEDB"/><path d="M66.243 46.609c5.139.954 9.043 4.568 9.043 11.214h24.357c1.222 0 2.214.993 2.214 2.216 0 3.664 2.98 6.646 6.643 6.646h2.214v-7.293c0-1.223.992-2.216 2.215-2.216 3.662 0 6.642-2.982 6.642-6.646 0-3.12-2.212-5.853-5.26-6.498a2.216 2.216 0 0 1-1.67-2.774c.195-.695.288-1.27.288-1.805 0-3.665-2.98-6.647-6.643-6.647-.5 0-1.037.08-1.68.25a2.214 2.214 0 0 1-2.778-2.228c.003-.075.025-.3.036-.372-.007-3.532-2.987-6.511-6.65-6.511a6.608 6.608 0 0 0-3.718 1.138c-.569.386-1.284.49-1.937.268a2.213 2.213 0 0 1-1.395-1.371c-.934-2.672-3.441-4.466-6.238-4.466-2.796 0-5.303 1.794-6.237 4.466a2.213 2.213 0 0 1-1.395 1.371 2.198 2.198 0 0 1-1.938-.268 6.608 6.608 0 0 0-3.718-1.138c-3.662 0-6.642 2.982-6.642 6.646a2.216 2.216 0 0 1-2.215 2.215c-2.945 0-5.42 1.941-6.288 4.602.61-.104 1.23-.009 1.86-.009 5.416 0 9.933 4.068 10.89 9.21z" fill="#4990E2"/><path d="M11.071 74.9c1.223 0 2.215.992 2.215 2.215v7.294H15.5c3.662 0 6.643-2.982 6.643-6.647 0-1.223.992-2.215 2.214-2.215h46.5c3.663 0 6.643-3.306 6.643-6.97 0-3.12-2.212-5.69-5.261-6.334-.124-.029-.224.011-.339.011H53.143c-6.105 0-11.072-5.293-11.072-11.4 0-4.13 2.34-7.99 5.844-9.886-1.134-2.167-3.372-3.649-5.844-3.649a6.6 6.6 0 0 0-6.237 4.424 2.183 2.183 0 0 1-1.395 1.352 2.216 2.216 0 0 1-1.938-.28 6.6 6.6 0 0 0-3.715-1.142 6.65 6.65 0 0 0-6.643 6.644c.009-.02.024.102.03.235a2.21 2.21 0 0 1-.825 1.814c-.55.44-1.271.596-1.95.414-.645-.17-1.181-.25-1.681-.25-3.663 0-6.643 2.982-6.643 6.646 0 .539.09 1.112.29 1.806a2.215 2.215 0 0 1-1.67 2.774c-3.053.644-5.265 3.376-5.265 6.497 0 3.665 2.98 6.647 6.642 6.647z" fill="#F6A623"/><g fill="#000"><path d="M117.313 40.363c.03-.308.044-.609.044-.91 0-6.181-5.08-11.173-11.293-11.075-1.027-5.052-5.502-8.864-10.85-8.864-1.368 0-2.708.25-3.963.733-1.998-3.164-5.496-5.164-9.322-5.164-3.827 0-7.325 2-9.323 5.164a11.087 11.087 0 0 0-1.749-.494v-9.101c0-6.108-4.966-10.43-11.071-10.43H17.714c-6.104 0-11.071 4.322-11.071 10.43V36.32L3.78 33.453.649 36.586l6.643 6.646a2.208 2.208 0 0 0 3.131.002l6.643-6.646-3.131-3.135-2.864 2.865V10.652c0-3.667 2.98-6 6.643-6h42.072c3.662 0 6.643 2.333 6.643 6v9.103c-4.391.897-7.85 4.387-8.672 8.807-3.863.72-7.028 3.453-8.36 7.069-1.98-1.77-4.562-2.825-7.326-2.825-3.826 0-7.324 2-9.322 5.165a11.024 11.024 0 0 0-3.963-.734c-5.348 0-9.823 3.813-10.85 8.864-6.158-.113-11.293 4.892-11.293 11.075 0 .302.013.603.044.91C2.71 59.81 0 63.795 0 68.254c0 5.35 3.81 9.826 8.857 10.854v6.87c0 1.223.992 2.862 2.214 2.862H15.5c5.348 0 9.82-4.43 10.848-8.861h9.08v17.076c0 6.106 4.967 11.724 11.072 11.724h37.643c6.105 0 11.071-5.618 11.071-11.724V73.602l2.863 2.864 3.131-3.135-6.642-6.646a2.211 2.211 0 0 0-3.132 0l-6.642 6.646 3.13 3.133 2.864-2.862v23.452c0 3.665-2.98 7.294-6.643 7.294H46.5c-3.662 0-6.643-3.63-6.643-7.294V79.978h31c6.105 0 11.072-4.97 11.072-11.078 0-2.468-.853-6.646-2.268-6.646h17.991c1.028 4.431 5.503 8.862 10.848 8.862h4.429c1.222 0 2.214-1.64 2.214-2.863v-6.87C120.189 60.355 124 55.878 124 50.53c0-4.46-2.71-8.443-6.687-10.167zm-64.17 17.46c-3.663 0-6.643-3.305-6.643-6.97 0-3.119 2.212-6.015 5.261-6.66.6-.128 1.12-.58 1.437-1.105.197-.325.27-.733.284-1.107a6.674 6.674 0 0 1 1.875-.295c3.663 0 6.643 2.97 6.643 6.635 0 1.223.992 2.535 2.214 2.535 3.663 0 6.643 2.534 6.643 6.965l-17.714.002zm19.096 4.256c3.049.645 5.261 3.54 5.261 6.66 0 3.664-2.98 6.808-6.643 6.808h-46.5a2.216 2.216 0 0 0-2.214 2.215c0 3.665-2.98 6.647-6.643 6.647h-2.214v-7.294A2.216 2.216 0 0 0 11.07 74.9c-3.662 0-6.642-2.982-6.642-6.647 0-3.119 2.212-5.853 5.26-6.497a2.215 2.215 0 0 0 1.67-2.774c-.197-.696-.288-1.27-.288-1.806 0-3.664 2.98-6.646 6.643-6.646.5 0 1.037.08 1.68.25a2.214 2.214 0 0 0 2.777-2.229c-.004-.13-.02-.256-.03-.234 0-3.665 2.98-6.647 6.643-6.647 1.332 0 2.617.395 3.717 1.14a2.213 2.213 0 0 0 3.333-1.103c.934-2.673 3.44-4.468 6.237-4.468 2.47 0 4.71 1.403 5.844 3.57-3.503 1.894-5.844 5.915-5.844 10.044 0 6.108 4.967 11.401 11.072 11.401H71.9c.115 0 .215-.202.339-.175zm40.69-4.903a2.216 2.216 0 0 0-2.215 2.216v7.293H108.5c-3.662 0-6.643-2.982-6.643-6.646a2.216 2.216 0 0 0-2.214-2.216H75.286c0-6.646-3.904-10.26-9.043-11.214-.957-5.142-5.474-9.21-10.886-9.21-.629 0-1.249-.016-1.86.089.868-2.661 3.342-4.642 6.289-4.642 1.222 0 2.214-1.012 2.214-2.235 0-3.665 2.98-6.658 6.643-6.658 1.333 0 2.617.388 3.718 1.133.569.385 1.286.487 1.937.265a2.216 2.216 0 0 0 1.395-1.373c.935-2.67 3.441-4.467 6.238-4.467 2.796 0 5.303 1.795 6.237 4.465.226.649.742 1.156 1.395 1.37a2.197 2.197 0 0 0 1.938-.267 6.608 6.608 0 0 1 3.718-1.139c3.662 0 6.643 2.982 6.647 6.51a5.287 5.287 0 0 0-.035.371 2.21 2.21 0 0 0 2.776 2.229c.647-.17 1.18-.25 1.68-.25 3.663 0 6.644 2.982 6.644 6.646 0 .538-.093 1.112-.29 1.806a2.215 2.215 0 0 0 1.67 2.773 6.68 6.68 0 0 1 5.26 6.505c0 3.664-2.98 6.646-6.642 6.646zM93 1.788h4.429v4.431H93zM101.857 1.788h4.429v4.431h-4.429zM110.714 1.788h4.429v4.431h-4.429zM8.857 103.701h4.429v4.431H8.857zM17.714 103.701h4.429v4.431h-4.429zM26.571 103.701H31v4.431h-4.429z"/></g></g></svg>