<svg version="1" xmlns="http://www.w3.org/2000/svg" width="533.333" height="533.333" viewBox="0 0 400.000000 400.000000"><path d="M0 200v200h141.5c93.7 0 141.5-.3 141.5-1 0-.6 1.1-1 2.5-1s2.5.4 2.5 1c0 .7 19.3 1 56 1h56V0H0v200zM238 25c0 1.1-.5 2-1 2-1.1 0-10 8.5-10 9.5 0 1.1-7.1 7.7-7.7 7.1-.4-.3.5-1.6 1.8-2.7 1.6-1.5 2-2.3 1.2-2.6-1.9-.7-1.6-3.3.3-3.3.8 0 3.3-1.8 5.4-4 2.1-2.2 4.6-4 5.4-4 .9 0 1.6-.8 1.6-2 0-1.1.7-2 1.5-2s1.5.9 1.5 2zm46 25c.8 1.1 2.3 2 3.3 2 1.1 0 3.2 1.3 4.7 3 1.5 1.6 3.3 3 4 3 1.4 0 4 2.5 4 3.9 0 .6.5 1.1 1 1.1.6 0 1 2.7 1 6s.4 6 1 6c.7 0 1 15.3 1 44s-.3 44-1 44c-1.4 0-1.2 3.7.3 4.3.9.4.8.8-.3 1.7-1.1.9-1.2 1.3-.2 1.7.6.2 1.2 1.8 1.2 3.4 0 1.6.5 2.9 1 2.9.6 0 1 2.4 1 5.4 0 3.4.5 5.6 1.3 5.9.8.3.5 1.1-1 2.4-2.1 1.9-2.3 2.9-2.3 12.9 0 9.8.2 11.1 2 12.4 1.4 1 2 2.6 2 5.2v3.8h-5c-4.3 0-5-.3-5-2 0-1.1.5-2 1-2 .6 0 1-.9 1-2 0-1.3-.7-2-2-2-1.1 0-2 .4-2 1 0 .5-.4 1-1 1s-1-2.8-1-6.5-.4-6.5-1-6.5-1-4.5-1-11.5-.4-11.5-1-11.5-1-3-1-7-.4-7-1-7c-.5 0-1-2-1-4.5 0-3.3-.4-4.5-1.5-4.5-1.2 0-1.5-1.3-1.5-6 0-3.3-.4-6-1-6-.7 0-1-14.5-1-41.5V65h3.5c2.9 0 3.5-.4 3.5-2.1 0-2.1-2.1-4.9-3.7-4.9-.5 0-1.5-.9-2.3-2-.8-1.1-2.5-2-3.8-2-1.3 0-3-.7-3.8-1.5-1.3-1.2-1.3-1.7-.2-2.9 1.9-2.2 6.1-1.9 7.8.4zm37 2c0 1.1-.4 2-1 2-.5 0-1 .9-1 2 0 2.3-2.5 2.7-4.6.6-2.8-2.9-.7-6.5 3.9-6.6 2 0 2.7.5 2.7 2zM133 62.5c0 2.5-.4 4.5-1 4.5-.5 0-1 1.3-1 3 0 1.6-.4 3-1 3-.5 0-1 1.3-1 3 0 1.6-.4 3-1 3-.5 0-1 .9-1 2s-.4 2-1 2c-.5 0-1 1.6-1 3.5s-.4 3.5-1 3.5c-.5 0-1 1.3-1 3 0 1.6-.4 3-1 3-.5 0-1 .9-1 2s-.4 2-1 2c-.5 0-1 .9-1 2 0 1.3.7 2 1.9 2 1.1 0 2.2.6 2.5 1.2.5 1 .7 1 1.2 0 .3-.6 2.3-1.2 4.5-1.2 2.1 0 3.9-.5 3.9-1 0-.6 2.8-1 6.3-1 5.1 0 6.5.4 7.7 2 .8 1.1 2 2 2.8 2 2 0 4.2 2.6 4.2 4.9 0 2-.6 2.1-9.5 2.1-5.7 0-9.5.4-9.5 1 0 .5-.9 1-2 1s-2-.5-2-1c0-.6-.9-1-2-1s-2-.5-2-1.1c0-.6-.7-1.7-1.5-2.5-1.3-1.4-1.7-1.4-3 0-1.3 1.3-1.5 8.6-1.5 53.4 0 40.7.3 52.1 1.3 52.5.9.4.8.8-.3 1.7-1.1.9-1.2 1.3-.2 1.7.9.3 1.2 4.4 1.2 15.7 0 14 .2 15.3 2 16.6 1.4 1 2 2.6 2 5.2 0 2.1.5 3.8 1 3.8.6 0 1 1.1 1 2.5 0 1.7.5 2.5 1.8 2.5 1 0 2.4.9 3.2 2 .8 1.1 1.8 2 2.3 2 .8 0 7.7 6.6 7.7 7.5 0 .3-.9.5-2 .5s-2-.5-2-1c0-.6-1.1-1-2.5-1s-2.5-.5-2.5-1c0-.6-.9-1-2-1s-2-.5-2-1c0-.6-.7-1-1.5-1-2.8 0-8.5-6.7-8.5-10 0-1.6-.4-3-1-3s-1-3-1-7c0-3.9-.3-7-.6-7s-1.9 1.3-3.4 3c-1.5 1.6-3.7 3-4.9 3-1.2 0-2.1.4-2.1 1 0 .5-.9 1-2 1-2 0-2-.7-2-68.1 0-74.6-.3-70.9 5.9-70.9 2.1 0 3.1-.5 3.1-1.5 0-.8.5-1.5 1-1.5.7 0 1 15 1 43s.3 43 1 43c.6 0 1 7.2 1 19.5s.4 19.5 1 19.5c.7 0 1-22.4 1-65.1 0-71.2.3-67.9-5.8-67.9-1.7 0-3.3-.6-3.6-1.3-.5-1-.7-1-1.2 0-.3.7-1.9 1.3-3.5 1.3s-2.9.4-2.9 1c0 .5-1.3 1-3 1-1.6 0-3 .4-3 1 0 .5-2.4 1-5.4 1-3.4 0-5.6.5-5.9 1.2-.2.7-.8 1-1.2.6-.9-.8 1.8-3.8 3.4-3.8.6 0 1.1-.5 1.1-1 0-.6.7-1 1.6-1 .8 0 4.2-2.7 7.4-6s6.4-6 7-6c1.7 0 4-2.6 4-4.5 0-1.6 2.2-4.5 3.4-4.5 1.2 0 13.6-13 13.6-14.3 0-.7.9-1.9 2-2.7 1.1-.8 2-1.8 2-2.3 0-1 2.3-3.6 3.3-3.7.4 0 .7 2 .7 4.5zm41 41.5c2.1 2.2 4.4 4 5 4 1.2 0 4 2.4 4 3.5 0 .8 2.7 3.5 3.5 3.5.4 0 1.4.8 2.3 1.7 1.2 1.2 1.3 1.8.4 2.1-1.9.6-1.4 3.6.8 5.2 1.9 1.4 2 2.6 2 20.2 0 11.9-.4 18.8-1 18.8-.5 0-1 1.8-1 4s-.4 4-1 4c-.5 0-1 1.3-1 3 0 2-.5 3-1.5 3-1.2 0-1.5 1.4-1.5 6.5s.3 6.5 1.5 6.5c.8 0 1.5.9 1.5 2s-.7 2-1.5 2c-1.2 0-1.5 1.3-1.5 6 0 5.7.1 6 2.5 6h2.5v-13.1c0-10 .3-13.4 1.4-14.5.8-.8 1.7-1.4 2-1.4.3 0 .6 11.6.6 25.8 0 24.6-.1 25.8-2 27.2-1.6 1.1-2 2.6-2 6.7 0 2.9.5 5.3 1 5.3.6 0 1 1.6 1 3.6 0 2.8.8 4.3 4 7.4 2.2 2.1 4 4.6 4 5.4 0 .9.5 1.6 1 1.6.6 0 1 .7 1 1.5s.5 1.5 1 1.5c.6 0 1 1.8 1 4s.5 4 1 4c.6 0 1 2.7 1 6 0 5.3-.2 6-2 6-1.7 0-2-.7-2-5 0-2.8-.4-5-1-5-.5 0-1-1.6-1-3.6 0-3.8-1.8-6.4-4.4-6.4-.9 0-1.6.7-1.6 1.6 0 2.5-2.6 4.4-5.9 4.4H185v9.1c0 9.3-1 11.9-4.4 11.9-.9 0-1.6.4-1.6 1 0 .5-.4 1-1 1-.5 0-1-2.5-1-5.5s.5-5.5 1-5.5c.6 0 1-3 1-7s.4-7 1-7 1-2 1-4.5.5-4.5 1-4.5c.6 0 1-.7 1-1.6 0-1.8 2.3-4.4 3.9-4.4.7 0 1.1-2.7 1.1-7 0-6.8-.1-7-2.5-7-2.3 0-2.5.4-2.5 4.6 0 4.7-1.6 7.4-4.4 7.4-.9 0-1.6-.8-1.6-2 0-1.1.5-2 1-2 .6 0 1-1.8 1-4s-.4-4-1-4c-.5 0-1-1.1-1-2.5 0-1.8-.5-2.5-2-2.5-1.3 0-2-.7-2-2s-.7-2-2-2-2-.7-2-1.8c0-1-.9-2.4-2-3.2-1.1-.8-2-2.2-2-3.2s-.4-1.8-1-1.8c-.5 0-1-1.4-1-3 0-1.7.5-3 1-3 .6 0 1 .4 1 1 0 .5.7 1 1.6 1 1.8 0 4.4 2.3 4.4 4 0 1.2 2.4 4 3.4 4 .3 0 .6-.8.6-1.8s.9-2.4 2-3.2c1.7-1.2 2-2.6 2-8.7 0-4.2-.4-7.3-1-7.3s-1-3.7-1-9.1c0-9.3 1-11.9 4.4-11.9 2.1 0 2.2-8.5.2-10.6-1.9-1.8-2.6-1.8-2.6.2 0 1.5-2.3 4.4-3.4 4.4-.3 0-.6-.9-.6-2s-.4-2-1-2c-.5 0-1-1.8-1-4s.5-4 1-4c.6 0 1-.7 1-1.5s.7-1.5 1.6-1.5c3.3 0 4.4-2.6 4.4-10.2 0-6.2-.3-7.6-2-8.8-2-1.5-2.8-6-1-6 .6 0 1-3.5 1-8.6 0-8.5-1-11.4-4-11.4-1.2 0-4-2.4-4-3.5 0-.4-1.8-2.4-4-4.5-5.1-4.9-5.2-7-.4-7 2.8 0 4.3.8 7.4 4zm60 2c.8 1.1 2 2 2.7 2 .7 0 1.3.4 1.3 1 0 .5-.7 1-1.5 1s-1.5-.5-1.5-1c0-.6-.9-1-2-1-1.6 0-2 .7-2 3.1 0 3.5 2 5.9 4.9 5.9 1.7 0 2.1.6 2.1 3 0 1.6.5 3 1 3 .6 0 1 .9 1 2s.5 2 1 2c.6 0 1 1.8 1 4s.5 4 1 4c.6 0 1 2 1 4.5s.5 4.5 1 4.5c.6 0 1 .9 1 2s.5 2 1 2c.6 0 1 1.8 1 4s.5 4 1 4c.6 0 1 9.3 1 26s-.4 26-1 26-1 2.8-1 6.5c0 5.6.3 6.5 1.8 6.5 1 0 2.4.9 3.2 2 .8 1.1 2.2 2 3.2 2 1.4 0 1.8.8 1.8 3.6 0 3.8-1.8 6.4-4.4 6.4-.9 0-1.6.7-1.6 1.5s-.8 1.5-1.8 1.5-2.4.9-3.2 2c-.8 1.1-2.2 2-3.2 2s-1.8.4-1.8 1c0 .5-.9 1-2 1s-2 .4-2 1c0 .5-.7 1-1.5 1s-1.5.4-1.5 1c0 .5-.9 1-2 1s-2 .4-2 1c0 .5-.9 1-2 1-1.8 0-2-.7-2-6v-6h-3c-1.6 0-3-.5-3-1 0-1.7-4.7-6-6.5-6-.8 0-1.5-.5-1.5-1 0-.6-.7-1-1.5-1s-1.5-.5-1.5-1c0-.6-.9-1-2-1s-2 .4-2 1c0 .5-.9 1-2 1-1.6 0-2-.7-2-3s.4-3 2-3c1.1 0 2-.5 2-1 0-.6.9-1 2-1s2 .4 2 1c0 .5.7 1 1.5 1s1.5.4 1.5 1c0 .5.8 1 1.8 1s2.4.9 3.2 2c2.1 3 5.6 2.4 9.5-1.5l3.5-3.4v-43.6c0-28.3-.3-43.5-1-43.5-1.8 0-1.1-5.5 1-7 1.8-1.3 3-7 1.4-7-1.1 0-3.4 2.9-3.4 4.4 0 .9-.8 1.6-2 1.6-1.1 0-2 .4-2 1 0 .5-1.3 1-2.8 1-1.6 0-3.4.8-4.2 2-.9 1.3-2.6 2-4.7 2-1.8 0-3.3.4-3.3 1 0 1.8-5.5 1.1-7-1-.8-1.1-2-2-2.8-2-.7 0-2-.7-2.8-1.5-1.4-1.3-1.4-1.7 0-3 .8-.8 2.2-1.5 3-1.5.9 0 1.6-.5 1.6-1 0-.6.7-1 1.6-1 2.6 0 4.4-2.6 4.4-6.4 0-2 .5-3.6 1-3.6.6 0 1-.7 1-1.5 0-.9.9-1.5 2.1-1.5 1.2 0 3.1-1 4.2-2.3 1.3-1.5 2.1-1.8 2.4-1 .5 1.5 4.3 1.7 4.3.3 0-.6.9-1 2-1s2-.5 2-1c0-1.8 5.5-1.1 7 1zm-132 2c0 1.3-.7 2-2 2s-2-.7-2-2 .7-2 2-2 2 .7 2 2zm152 24c0 .5-.4 1-1 1-.5 0-1-.5-1-1 0-.6.5-1 1-1 .6 0 1 .4 1 1zm-79 7.5c0 3.8-.3 4.5-2 4.5-1.6 0-2-.7-2-3 0-1.7.5-3 1-3 .6 0 1-.7 1-1.5s.5-1.5 1-1.5c.6 0 1 2 1 4.5zm140 46c0 2-.5 2.5-2.5 2.5-1.6 0-2.5-.6-2.5-1.5 0-.8.7-1.5 1.5-1.5s1.5-.5 1.5-1c0-.6.5-1 1-1 .6 0 1 1.1 1 2.5zm-5 18.5c0 1.1-.4 2-1 2-.5 0-1-.9-1-2s.5-2 1-2c.6 0 1 .9 1 2zm-139 30.5c0 1.9-.4 3.5-1 3.5-.5 0-1-1.6-1-3.5s.5-3.5 1-3.5c.6 0 1 1.6 1 3.5zM302 247c0 2.7.5 5 1 5 .6 0 1 1.8 1 4s.5 4 1 4c.6 0 1 1.4 1 3 0 3 3.7 8 6 8 .5 0 1 .4 1 1 0 .5.9 1 2 1 1.6 0 2 .7 2 3.6 0 3.6-2.9 8.1-3.8 5.6-.5-1.5-13.2-1.7-13.2-.2 0 .5-1.3 1-3 1-2.8 0-3-.3-3-3.6 0-2.8.8-4.3 4-7.4 4.5-4.4 4.8-5 2-5-1.1 0-2 .4-2 1 0 .5-.9 1-2 1s-2 .4-2 1c0 .5-.9 1-2 1s-2 .4-2 1c0 .5-1.1 1-2.5 1-2.1 0-2.5-.5-2.5-2.9 0-1.6-.6-3.2-1.2-3.5-1-.5-1-.7 0-1.2.6-.3 1.2-2.1 1.2-4 0-2.4.5-3.4 1.5-3.4.8 0 1.5-.9 1.5-2s.5-2 1-2c.6 0 1-.9 1-2s.5-2 1-2c.6 0 1-.7 1-1.5 0-2.6 4.3-6.4 7.3-6.4 2.6-.1 2.7.1 2.7 4.9zm-127 4c0 2.3-.4 3-2 3s-2-.7-2-3 .4-3 2-3 2 .7 2 3zm-42 3.6c0 .3-.6 1.2-1.4 2-2 1.9-2.6 1.8-2.6-.6 0-1.3.7-2 2-2 1.1 0 2 .3 2 .6zm44 14.4c0 4.4-.4 4.8-2.8 2.3-1.2-1.2-1.3-1.8-.4-2.1.6-.2 1.2-1.2 1.2-2.3 0-1 .5-1.9 1-1.9.6 0 1 1.8 1 4zm11 30c0 5.3.4 9 1 9s1 3.2 1 7.5-.4 7.5-1 7.5-1 3.5-1 8.5c0 6.9-.3 8.5-1.5 8.5-.9 0-1.5-.9-1.5-2.5 0-1.4-.4-2.5-1-2.5s-1-8.2-1-22.5V290h2.5c2.5 0 2.5.1 2.5 9zm95 94c0 .5-.4 1-1 1-.5 0-1-.5-1-1 0-.6.5-1 1-1 .6 0 1 .4 1 1z"/><path d="M296 77c0 4.7.4 8 1 8s1-1.8 1-4 .5-4 1-4c.6 0 1-1.8 1-4 0-3.3-.3-4-2-4-1.8 0-2 .7-2 8zM296 183c0 1.1.5 2 1 2 .6 0 1-.9 1-2s-.4-2-1-2c-.5 0-1 .9-1 2zM183 139.5c0 10.3.4 16.5 1 16.5s1-2.7 1-6c0-4.7.3-6 1.5-6s1.5-1.8 1.5-10.5V123h-5v16.5zM181 184c0 .5.5 1 1 1 .6 0 1-.5 1-1 0-.6-.4-1-1-1-.5 0-1 .4-1 1zM244 192.5c0 5.7.4 9.5 1 9.5s1-3.8 1-9.5-.4-9.5-1-9.5-1 3.8-1 9.5zM241.3 224.5c-1.8 2-1.6 2.5.7 2.5 1.3 0 2-.7 2-2 0-2.3-1-2.5-2.7-.5z"/></svg>