<?xml version="1.0" standalone="no"?>
<!DOCTYPE svg PUBLIC "-//W3C//DTD SVG 20010904//EN"
 "http://www.w3.org/TR/2001/REC-SVG-20010904/DTD/svg10.dtd">
<svg version="1.0" xmlns="http://www.w3.org/2000/svg"
 width="400.000000pt" height="400.000000pt" viewBox="0 0 400.000000 400.000000"
 preserveAspectRatio="xMidYMid meet">
<metadata>
Created by potrace 1.11, written by Peter Selinger 2001-2013
</metadata>
<g transform="translate(0.000000,400.000000) scale(0.100000,-0.100000)"
fill="#000000" stroke="none">
<path d="M0 2000 l0 -2000 1415 0 c937 0 1415 3 1415 10 0 6 11 10 25 10 14 0
25 -4 25 -10 0 -7 193 -10 560 -10 l560 0 0 2000 0 2000 -2000 0 -2000 0 0
-2000z m2380 1750 c0 -11 -5 -20 -10 -20 -11 0 -100 -85 -100 -95 0 -11 -71
-77 -77 -71 -4 3 5 16 18 27 16 15 20 23 12 26 -19 7 -16 33 3 33 8 0 33 18
54 40 21 22 46 40 54 40 9 0 16 8 16 20 0 11 7 20 15 20 8 0 15 -9 15 -20z
m460 -250 c8 -11 23 -20 33 -20 11 0 32 -13 47 -30 15 -16 33 -30 40 -30 14 0
40 -25 40 -39 0 -6 5 -11 10 -11 6 0 10 -27 10 -60 0 -33 4 -60 10 -60 7 0 10
-153 10 -440 0 -287 -3 -440 -10 -440 -14 0 -12 -37 3 -43 9 -4 8 -8 -3 -17
-11 -9 -12 -13 -2 -17 6 -2 12 -18 12 -34 0 -16 5 -29 10 -29 6 0 10 -24 10
-54 0 -34 5 -56 13 -59 8 -3 5 -11 -10 -24 -21 -19 -23 -29 -23 -129 0 -98 2
-111 20 -124 14 -10 20 -26 20 -52 l0 -38 -50 0 c-43 0 -50 3 -50 20 0 11 5
20 10 20 6 0 10 9 10 20 0 13 -7 20 -20 20 -11 0 -20 -4 -20 -10 0 -5 -4 -10
-10 -10 -6 0 -10 28 -10 65 0 37 -4 65 -10 65 -6 0 -10 45 -10 115 0 70 -4
115 -10 115 -6 0 -10 30 -10 70 0 40 -4 70 -10 70 -5 0 -10 20 -10 45 0 33 -4
45 -15 45 -12 0 -15 13 -15 60 0 33 -4 60 -10 60 -7 0 -10 145 -10 415 l0 415
35 0 c29 0 35 4 35 21 0 21 -21 49 -37 49 -5 0 -15 9 -23 20 -8 11 -25 20 -38
20 -13 0 -30 7 -38 15 -13 12 -13 17 -2 29 19 22 61 19 78 -4z m370 -20 c0
-11 -4 -20 -10 -20 -5 0 -10 -9 -10 -20 0 -23 -25 -27 -46 -6 -28 29 -7 65 39
66 20 0 27 -5 27 -20z m-1880 -105 c0 -25 -4 -45 -10 -45 -5 0 -10 -13 -10
-30 0 -16 -4 -30 -10 -30 -5 0 -10 -13 -10 -30 0 -16 -4 -30 -10 -30 -5 0 -10
-9 -10 -20 0 -11 -4 -20 -10 -20 -5 0 -10 -16 -10 -35 0 -19 -4 -35 -10 -35
-5 0 -10 -13 -10 -30 0 -16 -4 -30 -10 -30 -5 0 -10 -9 -10 -20 0 -11 -4 -20
-10 -20 -5 0 -10 -9 -10 -20 0 -13 7 -20 19 -20 11 0 22 -6 25 -12 5 -10 7
-10 12 0 3 6 23 12 45 12 21 0 39 5 39 10 0 6 28 10 63 10 51 0 65 -4 77 -20
8 -11 20 -20 28 -20 20 0 42 -26 42 -49 0 -20 -6 -21 -95 -21 -57 0 -95 -4
-95 -10 0 -5 -9 -10 -20 -10 -11 0 -20 5 -20 10 0 6 -9 10 -20 10 -11 0 -20 5
-20 11 0 6 -7 17 -15 25 -13 14 -17 14 -30 0 -13 -13 -15 -86 -15 -534 0 -407
3 -521 13 -525 9 -4 8 -8 -3 -17 -11 -9 -12 -13 -2 -17 9 -3 12 -44 12 -157 0
-140 2 -153 20 -166 14 -10 20 -26 20 -52 0 -21 5 -38 10 -38 6 0 10 -11 10
-25 0 -17 5 -25 18 -25 10 0 24 -9 32 -20 8 -11 18 -20 23 -20 8 0 77 -66 77
-75 0 -3 -9 -5 -20 -5 -11 0 -20 5 -20 10 0 6 -11 10 -25 10 -14 0 -25 5 -25
10 0 6 -9 10 -20 10 -11 0 -20 5 -20 10 0 6 -7 10 -15 10 -28 0 -85 67 -85
100 0 16 -4 30 -10 30 -6 0 -10 30 -10 70 0 39 -3 70 -6 70 -3 0 -19 -13 -34
-30 -15 -16 -37 -30 -49 -30 -12 0 -21 -4 -21 -10 0 -5 -9 -10 -20 -10 -20 0
-20 7 -20 681 0 746 -3 709 59 709 21 0 31 5 31 15 0 8 5 15 10 15 7 0 10
-150 10 -430 0 -280 3 -430 10 -430 6 0 10 -72 10 -195 0 -123 4 -195 10 -195
7 0 10 224 10 651 0 712 3 679 -58 679 -17 0 -33 6 -36 13 -5 10 -7 10 -12 0
-3 -7 -19 -13 -35 -13 -16 0 -29 -4 -29 -10 0 -5 -13 -10 -30 -10 -16 0 -30
-4 -30 -10 0 -5 -24 -10 -54 -10 -34 0 -56 -5 -59 -12 -2 -7 -8 -10 -12 -6 -9
8 18 38 34 38 6 0 11 5 11 10 0 6 7 10 16 10 8 0 42 27 74 60 32 33 64 60 70
60 17 0 40 26 40 45 0 16 22 45 34 45 12 0 136 130 136 143 0 7 9 19 20 27 11
8 20 18 20 23 0 10 23 36 33 37 4 0 7 -20 7 -45z m410 -415 c21 -22 44 -40 50
-40 12 0 40 -24 40 -35 0 -8 27 -35 35 -35 4 0 14 -8 23 -17 12 -12 13 -18 4
-21 -19 -6 -14 -36 8 -52 19 -14 20 -26 20 -202 0 -119 -4 -188 -10 -188 -5 0
-10 -18 -10 -40 0 -22 -4 -40 -10 -40 -5 0 -10 -13 -10 -30 0 -20 -5 -30 -15
-30 -12 0 -15 -14 -15 -65 0 -51 3 -65 15 -65 8 0 15 -9 15 -20 0 -11 -7 -20
-15 -20 -12 0 -15 -13 -15 -60 0 -57 1 -60 25 -60 l25 0 0 131 c0 100 3 134
14 145 8 8 17 14 20 14 3 0 6 -116 6 -258 0 -246 -1 -258 -20 -272 -16 -11
-20 -26 -20 -67 0 -29 5 -53 10 -53 6 0 10 -16 10 -36 0 -28 8 -43 40 -74 22
-21 40 -46 40 -54 0 -9 5 -16 10 -16 6 0 10 -7 10 -15 0 -8 5 -15 10 -15 6 0
10 -18 10 -40 0 -22 5 -40 10 -40 6 0 10 -27 10 -60 0 -53 -2 -60 -20 -60 -17
0 -20 7 -20 50 0 28 -4 50 -10 50 -5 0 -10 16 -10 36 0 38 -18 64 -44 64 -9 0
-16 -7 -16 -16 0 -25 -26 -44 -59 -44 l-31 0 0 -91 c0 -93 -10 -119 -44 -119
-9 0 -16 -4 -16 -10 0 -5 -4 -10 -10 -10 -5 0 -10 25 -10 55 0 30 5 55 10 55
6 0 10 30 10 70 0 40 4 70 10 70 6 0 10 20 10 45 0 25 5 45 10 45 6 0 10 7 10
16 0 18 23 44 39 44 7 0 11 27 11 70 0 68 -1 70 -25 70 -23 0 -25 -4 -25 -46
0 -47 -16 -74 -44 -74 -9 0 -16 8 -16 20 0 11 5 20 10 20 6 0 10 18 10 40 0
22 -4 40 -10 40 -5 0 -10 11 -10 25 0 18 -5 25 -20 25 -13 0 -20 7 -20 20 0
13 -7 20 -20 20 -13 0 -20 7 -20 18 0 10 -9 24 -20 32 -11 8 -20 22 -20 32 0
10 -4 18 -10 18 -5 0 -10 14 -10 30 0 17 5 30 10 30 6 0 10 -4 10 -10 0 -5 7
-10 16 -10 18 0 44 -23 44 -40 0 -12 24 -40 34 -40 3 0 6 8 6 18 0 10 9 24 20
32 17 12 20 26 20 87 0 42 -4 73 -10 73 -6 0 -10 37 -10 91 0 93 10 119 44
119 21 0 22 85 2 106 -19 18 -26 18 -26 -2 0 -15 -23 -44 -34 -44 -3 0 -6 9
-6 20 0 11 -4 20 -10 20 -5 0 -10 18 -10 40 0 22 5 40 10 40 6 0 10 7 10 15 0
8 7 15 16 15 33 0 44 26 44 102 0 62 -3 76 -20 88 -20 15 -28 60 -10 60 6 0
10 35 10 86 0 85 -10 114 -40 114 -12 0 -40 24 -40 35 0 4 -18 24 -40 45 -51
49 -52 70 -4 70 28 0 43 -8 74 -40z m600 -20 c8 -11 20 -20 27 -20 7 0 13 -4
13 -10 0 -5 -7 -10 -15 -10 -8 0 -15 5 -15 10 0 6 -9 10 -20 10 -16 0 -20 -7
-20 -31 0 -35 20 -59 49 -59 17 0 21 -6 21 -30 0 -16 5 -30 10 -30 6 0 10 -9
10 -20 0 -11 5 -20 10 -20 6 0 10 -18 10 -40 0 -22 5 -40 10 -40 6 0 10 -20
10 -45 0 -25 5 -45 10 -45 6 0 10 -9 10 -20 0 -11 5 -20 10 -20 6 0 10 -18 10
-40 0 -22 5 -40 10 -40 6 0 10 -93 10 -260 0 -167 -4 -260 -10 -260 -6 0 -10
-28 -10 -65 0 -56 3 -65 18 -65 10 0 24 -9 32 -20 8 -11 22 -20 32 -20 14 0
18 -8 18 -36 0 -38 -18 -64 -44 -64 -9 0 -16 -7 -16 -15 0 -8 -8 -15 -18 -15
-10 0 -24 -9 -32 -20 -8 -11 -22 -20 -32 -20 -10 0 -18 -4 -18 -10 0 -5 -9
-10 -20 -10 -11 0 -20 -4 -20 -10 0 -5 -7 -10 -15 -10 -8 0 -15 -4 -15 -10 0
-5 -9 -10 -20 -10 -11 0 -20 -4 -20 -10 0 -5 -9 -10 -20 -10 -18 0 -20 7 -20
60 l0 60 -30 0 c-16 0 -30 5 -30 10 0 17 -47 60 -65 60 -8 0 -15 5 -15 10 0 6
-7 10 -15 10 -8 0 -15 5 -15 10 0 6 -9 10 -20 10 -11 0 -20 -4 -20 -10 0 -5
-9 -10 -20 -10 -16 0 -20 7 -20 30 0 23 4 30 20 30 11 0 20 5 20 10 0 6 9 10
20 10 11 0 20 -4 20 -10 0 -5 7 -10 15 -10 8 0 15 -4 15 -10 0 -5 8 -10 18
-10 10 0 24 -9 32 -20 21 -30 56 -24 95 15 l35 34 0 436 c0 283 -3 435 -10
435 -18 0 -11 55 10 70 18 13 30 70 14 70 -11 0 -34 -29 -34 -44 0 -9 -8 -16
-20 -16 -11 0 -20 -4 -20 -10 0 -5 -13 -10 -28 -10 -16 0 -34 -8 -42 -20 -9
-13 -26 -20 -47 -20 -18 0 -33 -4 -33 -10 0 -18 -55 -11 -70 10 -8 11 -20 20
-28 20 -7 0 -20 7 -28 15 -14 13 -14 17 0 30 8 8 22 15 30 15 9 0 16 5 16 10
0 6 7 10 16 10 26 0 44 26 44 64 0 20 5 36 10 36 6 0 10 7 10 15 0 9 9 15 21
15 12 0 31 10 42 23 13 15 21 18 24 10 5 -15 43 -17 43 -3 0 6 9 10 20 10 11
0 20 5 20 10 0 18 55 11 70 -10z m-1320 -20 c0 -13 -7 -20 -20 -20 -13 0 -20
7 -20 20 0 13 7 20 20 20 13 0 20 -7 20 -20z m1520 -240 c0 -5 -4 -10 -10 -10
-5 0 -10 5 -10 10 0 6 5 10 10 10 6 0 10 -4 10 -10z m-790 -75 c0 -38 -3 -45
-20 -45 -16 0 -20 7 -20 30 0 17 5 30 10 30 6 0 10 7 10 15 0 8 5 15 10 15 6
0 10 -20 10 -45z m1400 -460 c0 -20 -5 -25 -25 -25 -16 0 -25 6 -25 15 0 8 7
15 15 15 8 0 15 5 15 10 0 6 5 10 10 10 6 0 10 -11 10 -25z m-50 -185 c0 -11
-4 -20 -10 -20 -5 0 -10 9 -10 20 0 11 5 20 10 20 6 0 10 -9 10 -20z m-1390
-305 c0 -19 -4 -35 -10 -35 -5 0 -10 16 -10 35 0 19 5 35 10 35 6 0 10 -16 10
-35z m1310 -125 c0 -27 5 -50 10 -50 6 0 10 -18 10 -40 0 -22 5 -40 10 -40 6
0 10 -14 10 -30 0 -30 37 -80 60 -80 5 0 10 -4 10 -10 0 -5 9 -10 20 -10 16 0
20 -7 20 -36 0 -36 -29 -81 -38 -56 -5 15 -132 17 -132 2 0 -5 -13 -10 -30
-10 -28 0 -30 3 -30 36 0 28 8 43 40 74 45 44 48 50 20 50 -11 0 -20 -4 -20
-10 0 -5 -9 -10 -20 -10 -11 0 -20 -4 -20 -10 0 -5 -9 -10 -20 -10 -11 0 -20
-4 -20 -10 0 -5 -11 -10 -25 -10 -21 0 -25 5 -25 29 0 16 -6 32 -12 35 -10 5
-10 7 0 12 6 3 12 21 12 40 0 24 5 34 15 34 8 0 15 9 15 20 0 11 5 20 10 20 6
0 10 9 10 20 0 11 5 20 10 20 6 0 10 7 10 15 0 26 43 64 73 64 26 1 27 -1 27
-49z m-1270 -40 c0 -23 -4 -30 -20 -30 -16 0 -20 7 -20 30 0 23 4 30 20 30 16
0 20 -7 20 -30z m-420 -36 c0 -3 -6 -12 -14 -20 -20 -19 -26 -18 -26 6 0 13 7
20 20 20 11 0 20 -3 20 -6z m440 -144 c0 -44 -4 -48 -28 -23 -12 12 -13 18 -4
21 6 2 12 12 12 23 0 10 5 19 10 19 6 0 10 -18 10 -40z m110 -300 c0 -53 4
-90 10 -90 6 0 10 -32 10 -75 0 -43 -4 -75 -10 -75 -6 0 -10 -35 -10 -85 0
-69 -3 -85 -15 -85 -9 0 -15 9 -15 25 0 14 -4 25 -10 25 -6 0 -10 82 -10 225
l0 225 25 0 c25 0 25 -1 25 -90z m950 -940 c0 -5 -4 -10 -10 -10 -5 0 -10 5
-10 10 0 6 5 10 10 10 6 0 10 -4 10 -10z"/>
<path d="M2960 3230 c0 -47 4 -80 10 -80 6 0 10 18 10 40 0 22 5 40 10 40 6 0
10 18 10 40 0 33 -3 40 -20 40 -18 0 -20 -7 -20 -80z"/>
<path d="M2960 2170 c0 -11 5 -20 10 -20 6 0 10 9 10 20 0 11 -4 20 -10 20 -5
0 -10 -9 -10 -20z"/>
<path d="M1830 2605 c0 -103 4 -165 10 -165 6 0 10 27 10 60 0 47 3 60 15 60
12 0 15 18 15 105 l0 105 -25 0 -25 0 0 -165z"/>
<path d="M1810 2160 c0 -5 5 -10 10 -10 6 0 10 5 10 10 0 6 -4 10 -10 10 -5 0
-10 -4 -10 -10z"/>
<path d="M2440 2075 c0 -57 4 -95 10 -95 6 0 10 38 10 95 0 57 -4 95 -10 95
-6 0 -10 -38 -10 -95z"/>
<path d="M2413 1755 c-18 -20 -16 -25 7 -25 13 0 20 7 20 20 0 23 -10 25 -27
5z"/>
</g>
</svg>
